<svg width="200" height="94" viewBox="0 0 200 94" fill="none" xmlns="http://www.w3.org/2000/svg">
<path d="M64.8667 74H53.7444L41.5333 34.8L28.9333 74H17.8111L0.7 19.5556H11.5111L23.9556 59.8444L36.9444 19.5556H46.5889L59.2667 60.1556L72.0222 19.5556H81.9778L64.8667 74Z" fill="white"/>
<path d="M168.762 64.0485V74.5H159.126V19.5H168.762V52.1887L186.181 34.8437H197.67L181.882 51.5216L199.078 74.5H187.515L174.84 57.8962L168.762 64.0485Z" fill="white"/>
<path d="M139.978 40.7711C141.214 38.6462 142.943 37.0401 145.167 35.953C147.44 34.8658 150.109 34.3223 153.172 34.3223V43.5878C152.629 43.5383 151.912 43.5136 151.023 43.5136C147.712 43.5136 145.118 44.5267 143.24 46.5527C141.362 48.5294 140.423 51.4696 140.423 55.3735V74.4975H130.787V34.8411H139.978V40.7711Z" fill="white"/>
<path d="M91.0861 54.708L83.1549 74.4991H73L95.0887 22.6123H104.873L127.036 74.4991H116.659L99.9808 32.9155L91.0861 54.708Z" fill="white"/>
</svg>
